<?xml version="1.0" encoding="UTF-8"?>
<svg id="Layer_2" data-name="Layer 2" xmlns="http://www.w3.org/2000/svg" viewBox="0 0 943.19 272.25">
  <g id="Layer_1-2" data-name="Layer 1">
    <g>
      <path d="m76.5,8.4h37.65l76.2,198h-39.9l-15.45-42.75H55.8l-15.75,42.75H0L76.5,8.4Zm-8.4,122.1h54.6l-27.15-76.8h-.45l-27,76.8Z"/>
      <path d="m240.6,206.4h-38.25V0h38.25v206.4Z"/>
      <path d="m363.9,206.4v-21.45c-.9,2.2-3.2,5.3-6.9,9.3-3.7,4-8.68,7.63-14.92,10.88-6.25,3.25-13.58,4.88-21.98,4.88-11.8,0-22.25-2.83-31.35-8.48-9.1-5.65-16.23-13.4-21.38-23.25-5.15-9.85-7.72-20.97-7.72-33.38s2.57-23.52,7.72-33.38c5.15-9.85,12.27-17.62,21.38-23.33,9.1-5.7,19.55-8.55,31.35-8.55,8.2,0,15.32,1.38,21.38,4.12,6.05,2.75,10.95,5.95,14.7,9.6,3.75,3.65,6.17,6.93,7.27,9.82v-19.95h37.8v123.15h-37.35Zm-34.5,65.85c-9,0-17.62-.85-25.88-2.55-8.25-1.7-15.73-4.35-22.43-7.95-6.7-3.6-12.3-8.3-16.8-14.1l23.1-23.4c2.1,2.7,4.82,5.42,8.17,8.17,3.35,2.75,7.62,5.05,12.83,6.9,5.2,1.85,11.7,2.78,19.5,2.78,7.4,0,13.77-1.43,19.12-4.28,5.35-2.85,9.5-6.88,12.45-12.07,2.95-5.2,4.43-11.25,4.43-18.15v-3.45h37.35v5.7c0,13.6-3.2,25.05-9.6,34.35-6.4,9.3-15,16.3-25.8,21-10.8,4.7-22.95,7.05-36.45,7.05Zm-32.4-127.35c0,6.9,1.55,12.98,4.65,18.23,3.1,5.25,7.2,9.33,12.3,12.23,5.1,2.9,10.65,4.35,16.65,4.35,6.3,0,11.9-1.47,16.8-4.42,4.9-2.95,8.77-7.05,11.62-12.3,2.85-5.25,4.27-11.27,4.27-18.08s-1.43-12.83-4.27-18.08c-2.85-5.25-6.73-9.38-11.62-12.38-4.9-3-10.5-4.5-16.8-4.5s-11.55,1.48-16.65,4.43c-5.1,2.95-9.2,7.05-12.3,12.3-3.1,5.25-4.65,11.33-4.65,18.23Z"/>
      <path d="m487.64,210c-13.1,0-24.78-2.8-35.02-8.4-10.25-5.6-18.28-13.28-24.08-23.03-5.8-9.75-8.7-20.87-8.7-33.38s2.9-23.67,8.7-33.52c5.8-9.85,13.82-17.65,24.08-23.4,10.25-5.75,21.92-8.62,35.02-8.62s24.85,2.88,34.95,8.62c10.1,5.75,18,13.55,23.7,23.4,5.7,9.85,8.55,21.03,8.55,33.52s-2.85,23.62-8.55,33.38c-5.7,9.75-13.6,17.43-23.7,23.03-10.1,5.6-21.75,8.4-34.95,8.4Zm0-31.65c6.3,0,11.77-1.43,16.42-4.28,4.65-2.85,8.25-6.8,10.8-11.85,2.55-5.05,3.82-10.77,3.82-17.18s-1.27-12.15-3.82-17.25c-2.55-5.1-6.15-9.12-10.8-12.07-4.65-2.95-10.12-4.43-16.42-4.43s-11.77,1.48-16.42,4.43c-4.65,2.95-8.28,6.97-10.88,12.07-2.6,5.1-3.9,10.85-3.9,17.25s1.3,12.13,3.9,17.18c2.6,5.05,6.22,9,10.88,11.85,4.65,2.85,10.12,4.28,16.42,4.28Z"/>
      <path d="m632.24,172.95l36.45-89.7h37.65l-84.15,185.55h-38.25l28.35-62.4-51.15-123.15h38.1l33,89.7Z"/>
      <path d="m718.97,83.25h15.42v-50.55h37.8v50.55h29.1v31.65h-29.1v44.55c0,5.9.95,10.48,2.85,13.73,1.9,3.25,4.9,4.88,9,4.88,3.1,0,5.65-.62,7.65-1.88,2-1.25,3.2-2.12,3.6-2.62l13.5,27.3c-.6.6-2.53,1.65-5.77,3.15-3.25,1.5-7.4,2.87-12.45,4.12-5.05,1.25-10.72,1.88-17.02,1.88-11.3,0-20.65-3.28-28.05-9.83-7.4-6.55-11.1-16.73-11.1-30.52v-54.75h-29.77l14.35-31.65Z"/>
      <path d="m850.34,153.3c.3,5.6,1.8,10.6,4.5,15,2.7,4.4,6.62,7.85,11.77,10.35,5.15,2.5,11.33,3.75,18.53,3.75,6.5,0,12.22-.8,17.17-2.4,4.95-1.6,9.15-3.57,12.6-5.93,3.45-2.35,6.02-4.62,7.73-6.82l15.75,23.4c-2.8,3.5-6.53,6.73-11.18,9.67-4.65,2.95-10.55,5.3-17.7,7.05-7.15,1.75-16.08,2.62-26.78,2.62-13.5,0-25.35-2.65-35.55-7.95s-18.15-12.95-23.85-22.95c-5.7-10-8.55-21.9-8.55-35.7,0-12,2.55-22.82,7.65-32.48,5.1-9.65,12.52-17.27,22.27-22.88,9.75-5.6,21.47-8.4,35.18-8.4,12.9,0,24.07,2.48,33.52,7.42,9.45,4.95,16.77,12.18,21.98,21.68,5.2,9.5,7.8,21.1,7.8,34.8,0,.8-.03,2.43-.08,4.88-.05,2.45-.18,4.08-.38,4.88h-92.4Zm57.15-23.55c-.1-3.2-1.08-6.65-2.92-10.35-1.85-3.7-4.73-6.85-8.62-9.45-3.9-2.6-9.1-3.9-15.6-3.9s-11.83,1.25-15.98,3.75c-4.15,2.5-7.27,5.58-9.38,9.23-2.1,3.65-3.3,7.23-3.6,10.73h56.1Z"/>
    </g>
  </g>
</svg>